<svg width="359" height="160" viewBox="0 0 359 160" fill="none" xmlns="http://www.w3.org/2000/svg">
<path d="M74.496 88.176C74.6667 90.9067 74.752 93.5093 74.752 95.984C74.752 98.3733 74.6667 100.933 74.496 103.664C74.496 104.688 74.496 105.84 74.496 107.12C74.496 108.4 74.4107 109.637 74.24 110.832C74.0693 112.027 73.7707 113.136 73.344 114.16C72.9173 115.184 72.2773 115.995 71.424 116.592C70.4 117.275 69.248 117.744 67.968 118C66.688 118.171 65.4933 118.085 64.384 117.744C63.2747 117.403 62.2933 116.763 61.44 115.824C60.672 114.885 60.2453 113.563 60.16 111.856C59.904 107.931 59.776 104.005 59.776 100.08C59.776 98.1173 59.7333 96.24 59.648 94.448C59.648 92.656 59.6907 90.1387 59.776 86.896C59.776 85.2747 59.648 83.44 59.392 81.392C59.136 79.2587 58.496 77.7653 57.472 76.912C56.704 76.2293 55.8507 75.8453 54.912 75.76C53.9733 75.5893 53.0347 75.6747 52.096 76.016C51.2427 76.3573 50.4747 76.9973 49.792 77.936C49.1093 78.7893 48.64 79.8987 48.384 81.264C48.384 82.3733 48.3413 83.5253 48.256 84.72C48.256 85.8293 48.2987 86.896 48.384 87.92C48.4693 90.6507 48.512 93.2533 48.512 95.728C48.512 98.1173 48.4693 100.677 48.384 103.408C48.2987 104.517 48.256 105.712 48.256 106.992C48.3413 108.272 48.3413 109.552 48.256 110.832C48.1707 112.027 47.9147 113.136 47.488 114.16C47.1467 115.184 46.5067 115.995 45.568 116.592C44.544 117.275 43.4347 117.701 42.24 117.872C41.1307 117.957 40.064 117.787 39.04 117.36C38.1013 116.848 37.248 116.08 36.48 115.056C35.7973 114.032 35.4133 112.667 35.328 110.96C35.1573 108.997 35.0293 107.205 34.944 105.584C34.944 103.877 34.944 102.085 34.944 100.208C34.944 98.2453 34.9867 96.24 35.072 94.192C35.1573 92.0587 35.1147 90.0107 34.944 88.048C34.944 87.4507 34.9013 86.768 34.816 86C34.816 85.1467 34.7733 84.2933 34.688 83.44C34.688 82.5867 34.6027 81.776 34.432 81.008C34.3467 80.1547 34.176 79.472 33.92 78.96C33.2373 77.7653 32 76.9973 30.208 76.656C28.5013 76.3147 27.0507 76.4427 25.856 77.04C24.6613 77.6373 23.7653 78.4053 23.168 79.344C22.5707 80.2827 22.144 81.3067 21.888 82.416C21.632 83.5253 21.504 84.72 21.504 86C21.504 87.1947 21.504 88.3467 21.504 89.456C21.504 95.0027 21.504 99.824 21.504 103.92C21.5893 107.931 21.1627 111.173 20.224 113.648C19.7973 114.928 18.9013 115.909 17.536 116.592C16.256 117.275 14.848 117.616 13.312 117.616C11.8613 117.616 10.496 117.275 9.216 116.592C7.936 115.909 7.08267 114.843 6.656 113.392C6.4 112.453 6.144 111.131 5.888 109.424C5.71733 107.632 5.58933 105.669 5.504 103.536C5.41867 101.403 5.376 99.2693 5.376 97.136C5.376 94.9173 5.376 92.912 5.376 91.12V72.688C5.29067 70.7253 5.248 68.592 5.248 66.288C5.248 63.984 5.58933 61.8933 6.272 60.016C6.86933 58.3947 7.808 57.3707 9.088 56.944C10.368 56.432 11.6907 56.2187 13.056 56.304C14.592 56.304 15.7867 56.7307 16.64 57.584C17.5787 58.352 18.2613 59.3333 18.688 60.528C19.1147 61.6373 19.3707 62.9173 19.456 64.368C19.5413 65.7333 19.6267 67.056 19.712 68.336C20.6507 66.2027 21.76 64.4533 23.04 63.088C24.4053 61.6373 26.3253 60.6987 28.8 60.272C35.1147 59.0773 40.1493 60.6987 43.904 65.136C45.6107 63.4293 47.7867 62.0213 50.432 60.912C52.48 60.144 54.5707 59.8027 56.704 59.888C58.8373 59.888 60.8427 60.272 62.72 61.04C64.6827 61.808 66.432 62.9173 67.968 64.368C69.5893 65.8187 70.8693 67.568 71.808 69.616C73.088 72.3467 73.8133 75.376 73.984 78.704C74.1547 82.032 74.3253 85.1893 74.496 88.176ZM141.247 60.912C142.015 62.1067 142.356 63.3867 142.271 64.752C142.271 66.7147 141.93 68.4213 141.247 69.872C141.076 70.2987 140.82 70.8533 140.479 71.536C140.223 72.2187 139.924 72.944 139.583 73.712C139.327 74.48 139.028 75.2053 138.687 75.888C138.346 76.5707 138.09 77.0827 137.919 77.424L137.663 78.064C136.468 80.7093 135.316 83.2693 134.207 85.744C133.098 88.2187 131.86 90.864 130.495 93.68C129.13 96.4107 127.807 99.0987 126.527 101.744C125.332 104.304 124.138 106.821 122.943 109.296C122.602 109.979 122.303 110.661 122.047 111.344C121.791 111.941 121.45 112.581 121.023 113.264L114.879 126.448C113.77 128.667 112.703 130.843 111.679 132.976C110.74 135.109 109.674 137.243 108.479 139.376C108.223 139.803 107.967 140.187 107.711 140.528C107.54 140.955 107.37 141.381 107.199 141.808C106.602 142.832 105.706 143.813 104.511 144.752C103.402 145.776 102.207 146.331 100.927 146.416C98.623 146.587 96.6177 145.904 94.911 144.368C93.887 143.771 93.0763 142.917 92.479 141.808C92.1377 141.04 91.967 140.059 91.967 138.864C92.0523 138.352 92.095 137.84 92.095 137.328C92.1803 136.901 92.2657 136.475 92.351 136.048C92.5217 135.621 92.6497 135.195 92.735 134.768C92.8203 134.341 92.9483 134 93.119 133.744C93.375 133.061 93.5883 132.72 93.759 132.72L103.103 112.496C102.676 111.557 102.25 110.619 101.823 109.68C101.396 108.656 101.012 107.76 100.671 106.992C99.5617 104.347 98.367 101.573 97.087 98.672C95.8923 95.6853 94.655 92.7413 93.375 89.84C92.095 86.8533 90.7723 83.952 89.407 81.136C88.0417 78.32 86.6763 75.632 85.311 73.072C84.799 72.2187 84.3297 71.3227 83.903 70.384C83.4763 69.36 83.135 68.3787 82.879 67.44C82.623 66.416 82.5377 65.392 82.623 64.368C82.7083 63.344 83.0923 62.32 83.775 61.296C84.4577 60.016 85.3537 59.12 86.463 58.608C87.5723 58.0107 88.7243 57.7547 89.919 57.84C91.199 57.84 92.3937 58.096 93.503 58.608C94.6123 59.12 95.5083 59.8027 96.191 60.656C97.6417 62.192 98.7937 63.8987 99.647 65.776C100.5 67.6533 101.311 69.5733 102.079 71.536C103.7 74.9493 105.364 78.5333 107.071 82.288C108.778 86.0427 110.484 89.712 112.191 93.296L118.847 79.216C119.53 77.8507 120.127 76.528 120.639 75.248C121.236 73.968 121.834 72.7307 122.431 71.536C123.114 70.0853 123.754 68.592 124.351 67.056C125.034 65.52 125.802 64.112 126.655 62.832C126.826 62.4907 126.996 62.192 127.167 61.936C127.338 61.68 127.508 61.3813 127.679 61.04C128.447 60.016 129.13 59.2053 129.727 58.608C130.154 58.2667 130.495 58.0107 130.751 57.84C131.092 57.584 131.476 57.4133 131.903 57.328C132.5 57.1573 133.055 57.072 133.567 57.072C134.164 56.9867 134.719 56.9867 135.231 57.072C136.084 57.328 137.108 57.712 138.303 58.224C139.583 58.736 140.564 59.632 141.247 60.912ZM208.044 35.44C211.287 38.4267 213.676 42.0107 215.212 46.192C216.748 50.288 217.345 54.384 217.004 58.48C216.663 62.4053 215.425 66.032 213.292 69.36C211.159 72.6027 207.916 75.0773 203.564 76.784C200.151 78.2347 196.78 79.2587 193.452 79.856C190.124 80.4533 186.455 80.9227 182.444 81.264C180.652 81.4347 179.116 81.5627 177.836 81.648C176.641 81.648 175.233 81.6907 173.612 81.776C173.271 81.776 172.673 81.776 171.82 81.776C171.052 81.776 170.497 81.8187 170.156 81.904V108.4C169.9 110.021 169.559 111.685 169.132 113.392C168.791 115.099 167.809 116.421 166.188 117.36C165.249 117.872 164.097 118.171 162.732 118.256C161.367 118.341 160.129 118.299 159.02 118.128C157.825 117.957 156.801 117.659 155.948 117.232C155.18 116.72 154.54 115.867 154.028 114.672C153.687 113.904 153.345 113.051 153.004 112.112C152.748 111.088 152.62 109.851 152.62 108.4V37.616C152.62 37.0187 152.663 36.464 152.748 35.952C152.833 35.44 152.919 34.928 153.004 34.416C153.175 33.9893 153.303 33.52 153.388 33.008C153.473 32.496 153.601 32.0267 153.772 31.6C153.943 31.1733 154.113 30.7893 154.284 30.448C154.54 30.1067 154.839 29.808 155.18 29.552C155.607 29.1253 156.247 28.7413 157.1 28.4C158.039 28.0587 159.404 27.888 161.196 27.888H161.452C164.097 27.7173 167.041 27.5893 170.284 27.504C173.527 27.3333 176.215 27.376 178.348 27.632C179.543 27.8027 180.652 27.9307 181.676 28.016C182.7 28.016 183.681 28.0587 184.62 28.144C185.644 28.2293 186.668 28.3147 187.692 28.4C188.716 28.4853 189.74 28.6133 190.764 28.784C191.617 28.9547 192.385 29.0827 193.068 29.168C193.836 29.2533 194.604 29.3813 195.372 29.552C196.055 29.7227 196.78 29.8933 197.548 30.064C198.401 30.2347 199.169 30.5333 199.852 30.96C201.644 31.472 203.137 32.112 204.332 32.88C205.527 33.648 206.764 34.5013 208.044 35.44ZM200.364 56.56C200.449 54.512 200.023 52.72 199.084 51.184C198.231 49.648 196.993 48.368 195.372 47.344C193.751 46.32 191.916 45.5093 189.868 44.912C187.82 44.3147 185.772 43.888 183.724 43.632C183.212 43.632 182.487 43.632 181.548 43.632C180.695 43.5467 179.756 43.504 178.732 43.504C177.708 43.4187 176.727 43.376 175.788 43.376C174.935 43.2907 174.252 43.248 173.74 43.248C173.313 43.1627 172.801 43.12 172.204 43.12C171.607 43.12 170.924 43.12 170.156 43.12C170.241 45.7653 170.284 48.3253 170.284 50.8C170.284 53.1893 170.284 55.792 170.284 58.608C170.199 60.144 170.156 61.68 170.156 63.216C170.156 64.752 170.156 66.2453 170.156 67.696L178.092 67.568C180.14 67.568 182.401 67.44 184.876 67.184C187.351 66.928 189.697 66.416 191.916 65.648C194.135 64.88 196.012 63.7707 197.548 62.32C199.169 60.8693 200.108 58.9493 200.364 56.56Z" fill="#00FF95"/>
<path fill-rule="evenodd" clip-rule="evenodd" d="M338.469 85.23C337.091 98.0761 330.666 109.848 320.608 117.957C310.549 126.066 297.682 129.848 284.836 128.469C271.99 127.091 260.217 120.666 252.108 110.608C243.999 100.55 240.218 87.6821 241.597 74.836C242.975 61.9899 249.4 50.2175 259.458 42.1085C269.516 33.9996 282.384 30.2184 295.23 31.5967C308.076 32.975 319.848 39.4 327.957 49.4582C336.066 59.5164 339.847 72.3839 338.469 85.23ZM351.679 86.6473C349.925 102.997 341.748 117.98 328.946 128.3C316.145 138.621 299.768 143.433 283.418 141.679C267.069 139.925 252.086 131.748 241.765 118.946C231.445 106.145 226.632 89.7682 228.387 73.4186C230.141 57.069 238.318 42.086 251.119 31.7655C263.921 21.445 280.298 16.6326 296.647 18.3868C312.997 20.141 327.98 28.3183 338.3 41.1196C348.621 53.9209 353.433 70.2977 351.679 86.6473ZM293.814 49.2785C287.579 48.6095 281.843 49.5975 277.338 52.4814C275.113 53.8836 273.238 55.7752 271.856 58.012C270.474 60.2488 269.62 62.7717 269.361 65.3883C268.639 72.1166 272.34 76.9766 276.166 80.006C279.919 82.9654 284.611 84.9029 288.401 86.1915C292.373 87.5263 295.653 88.671 297.933 90.2519C299.814 91.5672 300.135 92.4835 299.991 93.8221C299.895 94.7203 299.434 95.6953 297.485 96.5908C295.385 97.568 292.187 98.0623 288.62 97.6796C285.591 97.3545 282.722 96.0312 280.511 94.2261C278.201 92.3392 277.178 90.4123 276.964 89.3382C276.806 88.4696 276.476 87.6414 275.993 86.9019C275.511 86.1623 274.886 85.5264 274.155 85.0311C273.425 84.5359 272.602 84.1913 271.737 84.0175C270.871 83.8437 269.98 83.8442 269.114 84.0189C268.249 84.1937 267.427 84.5392 266.697 85.0353C265.966 85.5314 265.342 86.168 264.861 86.9081C264.379 87.6482 264.05 88.4768 263.893 89.3455C263.735 90.2142 263.753 91.1056 263.944 91.9675C264.928 96.9101 268.195 101.332 272.102 104.512C276.417 108.048 281.66 110.262 287.203 110.889C292.505 111.458 298.25 110.881 303.068 108.646C308.037 106.337 312.48 101.959 313.201 95.2394C314.017 87.6305 310.027 82.4811 305.509 79.3418C301.545 76.6004 296.577 74.9182 293.103 73.7527L292.647 73.5969C289.329 72.4748 286.357 71.1225 284.411 69.5776C282.546 68.1126 282.521 67.2725 282.572 66.7969C282.619 66.1572 282.82 65.5385 283.158 64.9931C283.495 64.4478 283.96 63.992 284.511 63.6645C285.793 62.84 288.275 62.0462 292.387 62.4875C296.527 62.9316 298.818 64.1573 300.107 65.2577C301.302 66.2721 302.142 67.6419 302.503 69.167C302.934 70.8753 304.026 72.3424 305.538 73.2456C307.051 74.1488 308.861 74.4141 310.569 73.9832C312.277 73.5522 313.744 72.4603 314.648 70.9476C315.551 69.4349 315.816 67.6254 315.385 65.9171C314.354 61.7162 312.029 57.9456 308.738 55.1379C305.024 51.9779 300.058 49.9485 293.822 49.2795" fill="#00FF95"/>
</svg>
