<svg width="35" height="35" viewBox="0 0 35 35" fill="none" xmlns="http://www.w3.org/2000/svg">
<path d="M10.2083 26.25C8.38873 26.25 6.64366 25.5586 5.35701 24.3279C4.07037 23.0972 3.34753 21.428 3.34753 19.6875C3.34753 17.947 4.07037 16.2778 5.35701 15.0471C6.64366 13.8164 8.38873 13.125 10.2083 13.125C10.6381 11.2105 11.8953 9.528 13.7034 8.44771C14.5986 7.9128 15.6022 7.54184 16.6567 7.356C17.7113 7.17015 18.7962 7.17307 19.8495 7.36458C20.9028 7.55609 21.9039 7.93245 22.7956 8.47216C23.6873 9.01187 24.4522 9.70436 25.0465 10.5101C25.6409 11.3158 26.053 12.2191 26.2595 13.1682C26.466 14.1173 26.4628 15.0937 26.25 16.0417H27.7083C29.062 16.0417 30.3603 16.5794 31.3175 17.5366C32.2747 18.4939 32.8125 19.7921 32.8125 21.1458C32.8125 22.4995 32.2747 23.7978 31.3175 24.755C30.3603 25.7122 29.062 26.25 27.7083 26.25H26.25" stroke="black" stroke-width="2" stroke-linecap="round" stroke-linejoin="round"/>
<path d="M13.125 21.875L17.5 17.5M17.5 17.5L21.875 21.875M17.5 17.5V30.625" stroke="black" stroke-width="2" stroke-linecap="round" stroke-linejoin="round"/>
</svg>
